HIERARCHY
ROOT Hips
{
	OFFSET 0.00000 0.00000 0.00000
	CHANNELS 6 Xposition Yposition Zposition Yrotation Zrotation Xrotation 
	JOINT Lumbar
	{
		OFFSET 0 0 0
		CHANNELS 3 Zrotation Xrotation Yrotation
		JOINT Neck
		{
			OFFSET 0.00 0.2701 0.00
			CHANNELS 3 Zrotation Xrotation Yrotation
			End Site
			{
				OFFSET 0.00 0.1379 0.00
			}
		}
		JOINT RightShoulder
		{
			OFFSET 0.0119 0.2289 0.1181
			CHANNELS 3 Zrotation Xrotation Yrotation
			JOINT RightElbow
			{
				OFFSET 0.00 -0.1475 0.00
				CHANNELS 2 Zrotation Yrotation
				JOINT RightWrist
				{
					OFFSET 0.00 -0.1605 0.00
					CHANNELS 2 Zrotation Xrotation
					End Site
					{
						OFFSET 0.0040 -0.1068 0.0006
					}
				}
			}
		}
		JOINT LeftShoulder
		{
			OFFSET 0.0119 0.2289 -0.1181
			CHANNELS 3 Zrotation Xrotation Yrotation
			JOINT LeftElbow
			{
				OFFSET 0.00 -0.1475 0.00
				CHANNELS 2 Zrotation Yrotation
				JOINT LeftWrist
				{
					OFFSET 0.00 -0.1605 0.00
					CHANNELS 2 Zrotation Xrotation
					End Site
					{
						OFFSET 0.0040 -0.1068 -0.0006
					}
				}
			}
		}
	}
	JOINT RightHip
	{
		OFFSET 0.0316 -0.0424 0.0458
		CHANNELS 3 Zrotation Xrotation Yrotation
		JOINT RightKnee
		{
			OFFSET 0.00 -0.2438 0.00
			CHANNELS 1 Zrotation
			JOINT RightAnkle
			{
				OFFSET 0.00 -0.2449 0.00
				CHANNELS 3 Zrotation Xrotation Yrotation
				End Site
				{
					OFFSET 0.1237 -0.0542 0.0051
				}
			}
		}
	}
	JOINT LeftHip
	{
		OFFSET 0.0316 -0.0424 -0.0458
		CHANNELS 3 Zrotation Xrotation Yrotation
		JOINT LeftKnee
		{
			OFFSET 0.00 -0.2438 0.00
			CHANNELS 1 Zrotation
			JOINT LeftAnkle
			{
				OFFSET 0.00 -0.2449 0.00
				CHANNELS 3 Zrotation Xrotation Yrotation
				End Site
				{
					OFFSET 0.1237 -0.0542 -0.0051
				}
			}
		}
	}
}
MOTION
Frames: 25
Frame Time: 0.02
-0.28411 0.56502 0.00477 616.88019 0 -4.04728 -24.72203 21.21318 -0.02258 0.86171 -6.50557 -1.96803 29.69926 -19.96662 -20.71283 18.61174 77.432 -5.7433 2.32139 12.12644 15.6861 -52.20512 76.50897 -84.57262 -21.15313 3.61211 14.38928 -0.14903 -3.95075 -23.81943 0.95246 -0.66303 2.48327 17.76487 4.42603 10.69702 -34.7016 14.34277 10.14928 8.38223
-0.2798 0.56533 0.00538 616.90295 0 -3.80183 -24.56313 21.34922 -0.17165 0.28805 -6.08657 -2.15585 30.34462 -19.78 -19.76399 18.77515 76.97516 -6.12817 2.21144 12.65391 15.16004 -52.17176 75.66027 -85.65108 -21.33492 3.81615 14.32296 -0.65419 -3.17209 -23.61987 0.76675 -0.82181 1.97138 17.92073 4.91759 9.64843 -35.81139 14.42533 9.98597 8.1712
-0.27521 0.566 0.00634 617.08872 0 -3.49472 -24.2307 21.41871 -0.47612 -0.50168 -5.59302 -2.46776 31.04383 -19.45962 -18.51422 18.98944 76.41685 -6.43969 2.06909 13.36502 14.48791 -52.1329 74.54544 -86.78457 -21.42806 4.03003 14.10881 -1.20781 -2.18874 -23.24836 0.4981 -1.08546 1.12226 17.90792 5.41407 7.64185 -36.73472 14.3928 9.0488 7.12367
-0.2707 0.5665 0.00715 617.19155 0 -3.22165 -23.98038 21.51348 -0.70179 -1.17327 -5.15224 -2.71527 31.68899 -19.18091 -17.39333 19.17508 75.92454 -6.7771 1.94041 13.96822 13.91307 -52.09748 73.59177 -87.83993 -21.56132 4.22823 13.9575 -1.74233 -1.31442 -22.94095 0.26046 -1.29286 0.44971 17.95835 5.92523 6.12328 -37.70226 14.41042 8.51514 6.51826
-0.26637 0.56706 0.00795 617.32197 0 -2.92299 -23.71904 21.62806 -0.96007 -1.93485 -4.62583 -2.99423 32.46949 -18.98223 -16.29536 19.38669 75.34735 -7.14922 1.81689 14.68212 13.20478 -52.05785 72.46681 -89.11795 -21.70205 4.47309 13.83285 -2.26997 -0.36734 -22.70299 0.05032 -1.53182 -0.30504 18.06766 6.37363 4.4035 -38.85247 14.43613 7.78865 5.6794
-0.26161 0.56757 0.00884 617.43913 0 -2.66406 -23.43786 21.68611 -1.18833 -2.55809 -4.26075 -3.23816 32.97709 -18.587 -15.08166 19.55552 74.92263 -7.43071 1.67534 15.20695 12.73839 -52.02565 71.63289 -89.94988 -21.80401 4.62432 13.61533 -2.82127 0.47458 -22.27868 -0.23514 -1.73198 -0.97565 18.01459 6.9494 2.86187 -39.57343 14.41877 7.26808 5.11409
-0.25583 0.56794 0.0099 617.45902 0 -2.51785 -23.15139 21.60297 -1.2923 -2.74608 -4.37903 -3.35372 32.71494 -17.66172 -13.62942 19.59098 74.95082 -7.47509 1.48334 15.15547 13.00673 -52.01694 71.70704 -89.48638 -21.81475 4.50238 13.16541 -3.42732 0.97882 -21.34423 -0.72566 -1.79681 -1.32257 17.54088 7.88923 2.11392 -39.15692 14.30196 7.52937 5.54772
-0.24963 0.56824 0.01105 617.46521 0 -2.416 -22.8495 21.46555 -1.36145 -2.78654 -4.65964 -3.43023 32.17535 -16.54721 -12.07224 19.58193 75.13474 -7.43096 1.27571 14.90798 13.5185 -52.01571 72.07712 -88.58059 -21.78928 4.28799 12.62797 -4.05466 1.36883 -20.2333 -1.2862 -1.82013 -1.57725 16.9125 8.95266 1.56466 -38.31433 14.14762 8.01657 6.27434
-0.24358 0.56853 0.01217 617.49205 0 -2.30146 -22.5496 21.35411 -1.44907 -2.89407 -4.85424 -3.5259 31.76315 -15.53177 -10.55858 19.5944 75.2431 -7.43021 1.08061 14.7551 13.89946 -52.01 72.28607 -87.91023 -21.78356 4.12398 12.1373 -4.67047 1.8088 -19.22585 -1.80314 -1.86467 -1.88187 16.36213 9.95067 0.87682 -37.6618 14.01593 8.38147 6.83829
-0.23772 0.56904 0.01327 617.46236 0 -2.15273 -22.26427 21.23511 -1.53129 -3.0095 -5.09798 -3.6202 31.34733 -14.45485 -9.04786 19.60242 75.36859 -7.41444 0.86144 14.58526 14.36084 -52.00842 72.59623 -87.09808 -21.76222 3.9254 11.61242 -5.29529 2.26482 -18.11421 -2.37181 -1.90265 -2.16315 15.76962 10.99152 0.35543 -37.01182 13.85577 8.80342 7.49975
-0.23134 0.56906 0.01441 617.54655 0 -2.08722 -21.94791 21.11943 -1.614 -3.07016 -5.27865 -3.70609 30.87265 -13.46487 -7.51505 19.60952 75.4961 -7.40885 0.68919 14.40197 14.7139 -52.00036 72.77172 -86.47354 -21.76437 3.77623 11.1395 -5.90649 2.6569 -17.18006 -2.84937 -1.94335 -2.46801 15.23501 11.96802 -0.44771 -36.26557 13.74856 9.16931 8.03643
-0.22377 0.56784 0.01567 617.93543 0 -2.235 -21.54462 21.02957 -1.70958 -3.01821 -5.24849 -3.78066 30.30086 -12.74441 -5.90639 19.61549 75.59621 -7.4624 0.64979 14.22699 14.71392 -51.97039 72.48419 -86.49158 -21.85344 3.79052 10.83541 -6.46813 2.90436 -16.77787 -3.04915 -1.99872 -2.84952 14.86009 12.773 -2.11686 -35.2932 13.78853 9.33253 8.1763
-0.21567 0.56613 0.01696 618.44097 0 -2.46624 -21.11274 20.94435 -1.80526 -2.91479 -5.14918 -3.84682 29.67974 -12.122 -4.28856 19.62361 75.69197 -7.52813 0.65851 14.04505 14.59618 -51.93408 72.05581 -86.71022 -21.96505 3.85685 10.58666 -7.01627 3.08913 -16.5615 -3.15658 -2.05801 -3.2586 14.55763 13.50163 -4.06254 -34.25329 13.88546 9.43204 8.18013
-0.20772 0.56461 0.01822 618.90098 0 -2.66342 -20.69777 20.85547 -1.89852 -2.83196 -5.07984 -3.91493 29.08228 -11.46617 -2.70269 19.63664 75.78764 -7.5821 0.64561 13.86662 14.52948 -51.90213 71.70552 -86.82626 -22.05852 3.89645 10.31063 -7.5748 3.29959 -16.26171 -3.31118 -2.11736 -3.66032 14.24661 14.24189 -5.85321 -33.28539 13.96196 9.56218 8.23873
-0.20013 0.56324 0.01953 619.32924 0 -2.84626 -20.26441 20.77231 -2.0018 -2.75534 -5.02195 -3.99059 28.46921 -10.75578 -0.99436 19.62316 75.89981 -7.65804 0.63072 13.67885 14.48183 -51.86416 71.3058 -86.97584 -22.1853 3.94589 10.04023 -8.11637 3.52013 -15.95116 -3.44433 -2.16883 -4.03618 13.82341 15.08581 -7.76859 -32.12115 14.013 9.70062 8.34031
-0.19168 0.56143 0.02074 619.85117 0 -3.0776 -19.86431 20.67766 -2.08325 -2.65622 -4.92207 -4.04783 27.88144 -10.18587 0.4581 19.66617 75.97155 -7.69374 0.63208 13.51288 14.36313 -51.83715 70.97197 -87.10816 -22.24694 3.98831 9.77269 -8.68952 3.70363 -15.70966 -3.60178 -2.23655 -4.47491 13.65785 15.69162 -9.48336 -31.36411 14.13241 9.79379 8.31193
-0.18107 0.55848 0.0217 620.60568 0 -3.42772 -19.55033 20.56236 -2.11661 -2.50235 -4.71943 -4.06666 27.37035 -9.97077 1.21462 19.86276 75.95862 -7.60365 0.66259 13.39755 14.0792 -51.84168 70.85144 -87.15182 -22.1374 3.99964 9.49874 -9.35351 3.8207 -15.61543 -3.82633 -2.36244 -5.06862 14.14428 15.67914 -10.65385 -31.67172 14.41476 9.86484 7.99667
-0.16963 0.55511 0.02254 621.44982 0 -3.82255 -19.27321 20.43334 -2.12594 -2.33002 -4.47704 -4.06567 26.8896 -9.89554 1.71082 20.11634 75.90011 -7.47543 0.70865 13.30802 13.72702 -51.85742 70.80092 -87.17137 -21.95937 4.00224 9.22706 -10.04854 3.89793 -15.5864 -4.0817 -2.50226 -5.72675 14.89428 15.42553 -11.60002 -32.40489 14.76559 9.87635 7.5476
-0.15854 0.55194 0.02342 622.25156 0 -4.19329 -18.98773 20.30291 -2.1383 -2.16939 -4.25421 -4.06685 26.39876 -9.76421 2.31658 20.34576 75.84399 -7.3726 0.75019 13.21432 13.40246 -51.86821 70.7193 -87.19952 -21.80318 4.00883 8.95442 -10.73036 3.98238 -15.52507 -4.33825 -2.62634 -6.36425 15.55405 15.26784 -12.59821 -32.99923 15.09411 9.85533 7.13191
-0.14751 0.54869 0.02436 623.06518 0 -4.583 -18.6661 20.20494 -2.18366 -1.98998 -4.02183 -4.09579 25.8871 -9.60788 2.9577 20.56936 75.86288 -7.2355 0.78245 13.08605 13.08503 -51.87836 70.63113 -87.24645 -21.68568 4.01768 8.68049 -11.4122 4.11657 -15.47483 -4.53022 -2.78953 -6.96832 16.09887 15.16394 -13.81399 -33.37284 15.39064 10.07895 6.8238
-0.1362 0.54552 0.02515 623.87287 0 -4.94262 -18.42855 20.03599 -2.15495 -1.84963 -3.80196 -4.0633 25.43083 -9.53156 3.46564 20.81673 75.71764 -7.16135 0.83736 13.0389 12.74213 -51.89237 70.57352 -87.24332 -21.47263 4.01832 8.41267 -12.09619 4.13098 -15.42279 -4.86179 -2.87542 -7.65428 16.93551 14.89334 -14.52315 -34.2928 15.76525 9.78575 6.26619
-0.12412 0.54247 0.02552 624.64954 0 -5.2086 -18.41724 19.67503 -1.92478 -1.79054 -3.61595 -3.85777 25.08525 -9.67659 3.64831 21.13228 75.10455 -7.26322 0.94856 13.18483 12.31022 -51.91611 70.59643 -87.13007 -20.99935 4.00479 8.12977 -12.8234 3.89237 -15.27767 -5.60096 -2.73702 -8.57321 18.59207 14.20759 -13.85701 -36.74915 16.37288 8.02945 5.01286
-0.11183 0.53954 0.02573 625.41501 0 -5.44217 -18.48874 19.24311 -1.62174 -1.77713 -3.44589 -3.59274 24.80103 -9.89064 3.70975 21.46692 74.3324 -7.43066 1.08213 13.4158 11.86185 -51.94303 70.6459 -86.96191 -20.43494 3.98186 7.85822 -13.54277 3.52451 -15.14012 -6.47423 -2.52179 -9.5677 20.51757 13.36542 -12.69319 -39.7154 17.04967 5.76619 3.52124
-0.09977 0.53668 0.02602 626.18047 0 -5.69003 -18.52056 18.84305 -1.3535 -1.76391 -3.27601 -3.3604 24.51197 -10.04959 3.84064 21.78175 73.65033 -7.57318 1.20698 13.62448 11.44523 -51.96731 70.67524 -86.80369 -19.92039 3.95875 7.60216 -14.23713 3.16867 -15.04669 -7.26749 -2.34653 -10.51301 22.26885 12.60423 -11.77639 -42.36346 17.67258 3.76676 2.16502
-0.08713 0.5333 0.02629 626.97144 0 -5.94177 -18.56266 18.44358 -1.07602 -1.66297 -3.07448 -3.10335 24.12709 -10.3126 3.90216 22.14468 72.89264 -7.69532 1.32676 13.76644 10.92513 -51.997 70.741 -86.70918 -19.36653 3.95406 7.26028 -15.05567 2.99927 -14.75867 -8.14337 -2.15014 -11.52439 24.25146 11.79255 -10.76407 -45.39557 18.39424 1.61844 0.68889
